# xmcd CD database file
#
# Track frame offsets:
#	150
#	79089
#	120697
#	152643
#	185014
#	212013
#
# Disc length: 3251 seconds
#
# Revision: 0
# Processed by: cddbd v1.5.2PL0 Copyright (c) Steve Scherf et al.
# Submitted via: CDex 1.50
#
DISCID=4a0cb106
DTITLE=Jean Derome, Pierre Tanguay - Plinc! Plonc!
DYEAR=2001
DGENRE=Jazz
TTITLE0=Plinc! Plonc!
TTITLE1=Djuni
TTITLE2=Casse-Cou
TTITLE3=Ba-Lue Bolivar Ba-Lues-Are
TTITLE4=Zupirani
TTITLE5=Gueding! Guedong!
EXTD=YEAR: 2001
EXTT0=
EXTT1=
EXTT2=
EXTT3=
EXTT4=
EXTT5=
PLAYORDER=
